<svg width="8" height="8" viewBox="0 0 8 8" xmlns="http://www.w3.org/2000/svg" xmlns:xlink="http://www.w3.org/1999/xlink" xmlns:figma="http://www.figma.com/figma/ns"><title>Rectangle 430</title><desc>Created using Figma</desc><g transform="translate(1051 259)" figma:type="canvas"><path fill="#FFF" d="M-1051-259h8v8h-8z"/><mask id="a"><path d="M-1194-1186H-65v3383h-1129v-3383z" fill="#FFF"/></mask><g mask="url(#a)" figma:type="frame"><path d="M-1194-1186H-65v3383h-1129v-3383z" fill="#5A6872"/><g figma:type="frame"><use xlink:href="#b" transform="translate(-1074 -550)" fill="#FFF" figma:type="vector"/><g figma:type="frame"><g figma:type="instance"><g figma:type="frame"><g figma:type="instance"><g figma:type="frame"><use xlink:href="#c" transform="translate(-1051 -259)" fill="#E71D32" figma:type="vector"/></g></g></g></g></g></g></g></g><defs><path id="b" fill-rule="evenodd" d="M0 2a2 2 0 0 1 2-2h886a2 2 0 0 1 2 2v380a2 2 0 0 1-2 2H2a2 2 0 0 1-2-2V2z"/><path id="c" fill-rule="evenodd" d="M0 4a4 4 0 1 1 8 0 4 4 0 1 1-8 0z"/></defs></svg>