<svg width="19" height="19" viewBox="0 0 19 19" xmlns="http://www.w3.org/2000/svg" xmlns:xlink="http://www.w3.org/1999/xlink" xmlns:figma="http://www.figma.com/figma/ns"><title>Group 3</title><desc>Created using Figma</desc><g figma:type="canvas"><g figma:type="frame"><use xlink:href="#a" transform="translate(.359)" fill="#D8D8D8" opacity=".6" figma:type="vector"/><use xlink:href="#b" transform="translate(7.466 3.17)" fill="#FFF" figma:type="text"/></g></g><defs><path id="a" fill-rule="evenodd" d="M9.137 19c5.047 0 9.138-4.253 9.138-9.5S14.184 0 9.137 0C4.091 0 0 4.253 0 9.5S4.091 19 9.137 19z"/><path id="b" d="M2.435 9h-.813V4.245h.813V9zm-.88-6.016a.49.49 0 0 1 .12-.334c.082-.09.202-.136.36-.136.158 0 .278.045.36.136a.48.48 0 0 1 .123.334.464.464 0 0 1-.123.33c-.082.087-.202.131-.36.131-.158 0-.278-.044-.36-.132a.474.474 0 0 1-.12-.33z"/></defs></svg>