<svg width="16" height="16" viewBox="0 0 16 16" xmlns="http://www.w3.org/2000/svg" xmlns:xlink="http://www.w3.org/1999/xlink" xmlns:figma="http://www.figma.com/figma/ns"><title>Group 3</title><desc>Created using Figma</desc><g transform="translate(952 315)" figma:type="canvas"><path fill="#FFF" d="M-952-315h16v16h-16z"/><mask id="a"><path d="M-1194-1186H-65v3383h-1129v-3383z" fill="#FFF"/></mask><g mask="url(#a)" figma:type="frame"><path d="M-1194-1186H-65v3383h-1129v-3383z" fill="#5A6872"/><g figma:type="frame"><use xlink:href="#b" transform="translate(-1074 -550)" fill="#FFF" figma:type="vector"/><g figma:type="frame"><g figma:type="instance"><g figma:type="frame"><g figma:type="instance"><g figma:type="frame"><use xlink:href="#c" transform="translate(-952 -315)" fill="#30AE63" figma:type="vector-operation"/></g></g></g></g></g></g></g></g><defs><path id="b" fill-rule="evenodd" d="M0 2a2 2 0 0 1 2-2h886a2 2 0 0 1 2 2v380a2 2 0 0 1-2 2H2a2 2 0 0 1-2-2V2z"/><path id="c" fill-rule="evenodd" d="M0 8c0-4.4 3.6-8 8-8s8 3.6 8 8-3.6 8-8 8-8-3.6-8-8zm3.4.1l3.3 3.4 5.5-5.6-1.4-1.4-4.1 4.1-1.9-1.9-1.4 1.4z"/></defs></svg>